Coordinates
version=1
nRows=26
nColumns=24
inDegrees=yes

Units are S.I. units (second, meters, Newtons, ...)
Angles are in degrees.

endheader
time	pelvis_tilt	pelvis_list	pelvis_rotation	pelvis_tx	pelvis_ty	pelvis_tz	hip_flexion_r	hip_adduction_r	hip_rotation_r	knee_angle_r	ankle_angle_r	subtalar_angle_r	mtp_angle_r	hip_flexion_l	hip_adduction_l	hip_rotation_l	knee_angle_l	ankle_angle_l	subtalar_angle_l	mtp_angle_l	lumbar_extension	lumbar_bending	lumbar_rotation
      0.83733333	     -1.49490313	     -2.54223319	      0.17055254	     -0.18868746	      1.04289661	      0.29864167	    -10.08988141	      5.23968814	     -1.00677292	    -11.30975138	     21.15795825	      0.21396366	      2.19496059	     27.62763645	     -3.28734202	      0.13682532	     -7.78262158	      7.00043944	      8.54738311	      2.69288489	    -11.66642592	      5.95495589	      3.29471807
      0.84150000	     -1.46772495	     -2.50168323	      0.14769013	     -0.18287479	      1.04202164	      0.29828423	    -10.28619002	      5.16675892	     -0.98296775	    -11.70189022	     21.29336008	      0.18304793	      2.19235004	     27.70296986	     -3.14991522	      0.32566405	     -8.31535572	      6.89410493	      8.49590619	      2.70287399	    -11.65544653	      5.84975057	      3.28691721
      0.84566667	     -1.46620328	     -2.44328610	      0.11589892	     -0.17702291	      1.04113714	      0.29788584	    -10.40257737	      5.05264567	     -1.13422473	    -12.21278669	     21.56372774	      0.53052163	      2.18644222	     27.78420385	     -2.98781924	      0.60202005	     -8.86505642	      6.71406159	      8.25063605	      2.75940561	    -11.57432877	      5.71319903	      3.25723826
      0.84983333	     -1.46247062	     -2.38516583	      0.08186659	     -0.17115250	      1.04030130	      0.29750992	    -10.53018321	      4.94670968	     -1.18975497	    -12.70398112	     21.72710033	      0.67701908	      2.18926757	     27.87602667	     -2.83206299	      0.84190749	     -9.49186166	      6.51685149	      8.05501331	      2.82170104	    -11.51125338	      5.57512775	      3.24219800
      0.85400000	     -1.45123677	     -2.32104299	      0.04161039	     -0.16526492	      1.03953043	      0.29714724	    -10.65416615	      4.83340679	     -1.22602906	    -13.22130284	     21.86833637	      0.79905084	      2.20606066	     27.96111613	     -2.67527424	      1.07307188	    -10.16901581	      6.30675815	      7.87018557	      2.87573952	    -11.46433708	      5.41954156	      3.23162894
      0.85816667	     -1.45623789	     -2.24845940	     -0.00155093	     -0.15933099	      1.03878618	      0.29675319	    -10.74718182	      4.70305875	     -1.29578742	    -13.76834393	     21.97441073	      0.97680313	      2.24147117	     28.06495731	     -2.50916648	      1.29289864	    -10.89189410	      6.04954046	      7.63065892	      2.93682628	    -11.38084889	      5.26098798	      3.22668286
      0.86233333	     -1.47456035	     -2.17837062	     -0.05095519	     -0.15338280	      1.03806178	      0.29636824	    -10.80939484	      4.57399882	     -1.34199650	    -14.34989627	     22.04602814	      1.11279449	      2.28985865	     28.18526651	     -2.35111677	      1.51211511	    -11.65390544	      5.78876551	      7.39252065	      2.99027419	    -11.28031909	      5.10172684	      3.22375658
      0.86650000	     -1.48859976	     -2.10451112	     -0.10172504	     -0.14741564	      1.03740360	      0.29596976	    -10.86174210	      4.43574832	     -1.40312162	    -14.96016405	     22.08100264	      1.28239753	      2.36012334	     28.30252691	     -2.19070403	      1.72558144	    -12.44859062	      5.50740359	      7.12016154	      3.04262683	    -11.18723415	      4.93934336	      3.22788667
      0.87066667	     -1.51720538	     -2.03586848	     -0.15430335	     -0.14141722	      1.03676705	      0.29555239	    -10.88343313	      4.29856083	     -1.46442231	    -15.60171265	     22.07568885	      1.45148898	      2.45305832	     28.43800073	     -2.03775941	      1.93361546	    -13.27459200	      5.22378852	      6.83750588	      3.09060517	    -11.06758434	      4.78294672	      3.23410162
      0.87483333	     -1.53135597	     -1.94735406	     -0.21903400	     -0.13540077	      1.03623073	      0.29514208	    -10.89941032	      4.13201197	     -1.53324235	    -16.28578980	     22.03982694	      1.64200933	      2.57435787	     28.54564566	     -1.87295022	      2.12187991	    -14.10104917	      4.93014377	      6.52747124	      3.13228110	    -10.96667890	      4.59680947	      3.24439845
      0.87900000	     -1.55484567	     -1.87218922	     -0.27953364	     -0.12936571	      1.03571929	      0.29469085	    -10.88667554	      3.97370932	     -1.61362789	    -17.00603699	     21.95718312	      1.84342113	      2.72726375	     28.66922282	     -1.72086351	      2.30433946	    -14.95467668	      4.65600708	      6.22170467	      3.16663524	    -10.84858194	      4.43247025	      3.25924926
      0.88316667	     -1.55415626	     -1.78855496	     -0.34196765	     -0.12332444	      1.03532184	      0.29423814	    -10.88490452	      3.80201478	     -1.69193459	    -17.74496567	     21.76746249	      1.98023970	      5.34097169	     28.74892091	     -1.55978939	      2.51974581	    -15.78684948	      4.35750013	      5.80747593	      3.56954447	    -10.76574522	      4.26472140	      3.23120515
      0.88733333	     -1.58060657	     -1.70288134	     -0.42136432	     -0.11724296	      1.03493273	      0.29380268	    -10.82085061	      3.61646053	     -1.78829181	    -18.55678491	     21.58853286	      2.21727462	      5.38888345	     28.86842008	     -1.42020554	      2.60624236	    -16.65984285	      4.14300819	      5.61550668	      3.55824293	    -10.63998067	      4.07075323	      3.28780203
      0.89150000	     -1.60318059	     -1.61415221	     -0.50162242	     -0.11115333	      1.03462048	      0.29333309	    -10.73580440	      3.41826874	     -1.90339665	    -19.41506038	     21.38585502	      2.48630250	      5.48589438	     28.96462097	     -1.27319024	      2.72892798	    -17.50368135	      3.92474774	      5.32032585	      3.53439397	    -10.51991134	      3.88505054	      3.32305428
      0.89566667	     -1.59177601	     -1.51946710	     -0.57445757	     -0.10508551	      1.03441681	      0.29281974	    -10.65582583	      3.20260294	     -2.05988609	    -20.32916315	     21.16791501	      2.78441844	      5.68257517	     29.01265127	     -1.11735763	      2.85370623	    -18.32755950	      3.72223483	      5.00916373	      3.48821397	    -10.44967905	      3.70357207	      3.36319389
      0.89983333	     -1.59801219	     -1.42033438	     -0.67072261	     -0.09895565	      1.03428441	      0.29236684	    -10.54350552	      2.97845185	     -2.16256066	    -21.25932165	     20.79034173	      3.04161835	      5.84442172	     29.05641051	     -0.97775696	      2.91727944	    -19.12245539	      3.57763873	      4.77541674	      3.44879886	    -10.34376193	      3.48871002	      3.38298685
      0.90400000	     -1.57780564	     -1.32246362	     -0.75032077	     -0.09287654	      1.03423764	      0.29181661	    -10.41502811	      2.73734903	     -2.34746024	    -22.26452514	     20.37393989	      3.29897629	      9.56015981	     29.05452506	     -0.82113195	      3.03982484	    -19.88024696	      3.43657754	      4.43616213	      2.59552372	    -10.28460328	      3.31907207	      3.40435495
      0.90816667	     -1.56576727	     -1.22195559	     -0.84285719	     -0.08676137	      1.03423820	      0.29132242	    -10.25538622	      2.49066010	     -2.50269851	    -23.31257089	     19.93585084	      3.61415669	      9.61421305	     29.05468565	     -0.68786441	      3.04316439	    -20.63286518	      3.38150045	      4.30379515	      2.58274787	    -10.20420939	      3.09860037	      3.44488875
      0.91233333	     -1.54482473	     -1.10790305	     -0.93812564	     -0.08066968	      1.03432078	      0.29077422	    -10.05709389	      2.20674044	     -2.72477210	    -24.44879230	     19.51824397	      3.99609070	      9.75688375	     29.01361406	     -0.53427249	      3.07140026	    -21.32423222	      3.31633734	      4.08387327	      2.54848265	    -10.13752735	      2.90529117	      3.50287279
      0.91650000	     -1.52459932	     -0.99739461	     -1.03216492	     -0.07458062	      1.03446790	      0.29022898	     -9.83286407	      1.92114617	     -2.93275471	    -25.61905913	     19.00212669	      4.36331076	      9.97577649	     28.95190756	     -0.38731380	      3.08412579	    -21.97495346	      3.29421070	      3.88670025	      2.49767681	    -10.06719052	      2.69969101	      3.54541642
      0.92066667	     -1.47556180	     -0.88590221	     -1.12765593	     -0.06852638	      1.03473212	      0.28968448	     -9.61264271	      1.62702275	     -3.12964381	    -26.81334816	     18.31988673	      4.65176967	     13.72985825	     28.83227916	     -0.23902852	      3.09753071	    -22.57395586	      3.31250384	      3.67545777	      1.64444820	    -10.04176022	      2.48984033	      3.56805030
      0.92483333	     -1.43171557	     -0.75996013	     -1.21838863	     -0.06247346	      1.03503777	      0.28913428	     -9.34585463	      1.30470109	     -3.36639254	    -28.08923437	     17.69730755	      5.02567472	     13.79717238	     28.69797219	     -0.08209936	      3.06227483	    -23.13281502	      3.38515001	      3.56692137	      1.63044567	    -10.00546256	      2.26398722	      3.60198630
      0.92900000	     -1.37078648	     -0.62769160	     -1.31486242	     -0.05647522	      1.03542968	      0.28858541	     -9.06117364	      0.96465086	     -3.59358914	    -29.41514949	     17.02621569	      5.42963327	     13.96906462	     28.51604761	      0.08342029	      3.03759511	    -23.63266288	      3.47245689	      3.39285202	      1.59374198	    -10.00395454	      2.02060758	      3.64138679
      0.93316667	     -1.31755583	     -0.49059988	     -1.40563124	     -0.05048651	      1.03585974	      0.28802120	     -8.73382017	      0.61020247	     -3.83537880	    -30.79236931	     16.28790496	      5.78040685	     14.16521328	     28.31679809	      0.25253270	      2.98675045	    -24.07751778	      3.57748746	      3.27440000	      1.55323305	     -9.97726975	      1.79527383	      3.66321088
      0.93733333	     -1.25410192	     -0.35568790	     -1.50818548	     -0.04456052	      1.03638374	      0.28748079	     -8.38543832	      0.25113558	     -4.03792141	    -32.19319985	     15.40377783	      6.07359968	     17.70160738	     28.07498975	      0.41923560	      2.95423150	    -24.46077870	      3.72536679	      3.10727792	      0.79133709	     -9.97929387	      1.56220784	      3.68283059
      0.94150000	     -1.19621905	     -0.20215714	     -1.59660847	     -0.03865906	      1.03692724	      0.28693854	     -7.99436275	     -0.13383785	     -4.26777843	    -33.66127264	     14.57602769	      6.39690313	     17.74828318	     27.82261758	      0.60534104	      2.89120135	    -24.80643673	      3.90915401	      3.01201094	      0.78252710	     -9.97388917	      1.30247942	      3.68624168
